<svg width="539" height="472" viewBox="0 0 539 472" fill="none" xmlns="http://www.w3.org/2000/svg">
<path d="M202.943 0.733657C202.992 0.631888 203.005 0.516478 202.982 0.405624C202.959 0.29477 202.901 0.194783 202.816 0.121429C202.731 0.0480753 202.625 0.00553145 202.514 0.000503171C202.403 -0.0045251 202.294 0.0282478 202.203 0.0936581C198.17 2.87366 195.967 6.76366 195.593 11.7637C195.307 15.517 195.55 19.4503 196.323 23.5637C196.331 23.6777 196.384 23.7839 196.47 23.8589C196.557 23.9339 196.669 23.9716 196.783 23.9637C196.897 23.9557 197.003 23.9028 197.078 23.8165C197.153 23.7302 197.191 23.6177 197.183 23.5037C197.576 15.2637 199.497 7.67366 202.943 0.733657Z" fill="#FDFDFD"/>
<path d="M187.293 13.6437C187.303 13.7104 187.334 13.7721 187.382 13.8202C187.429 13.8682 187.49 13.9001 187.557 13.9112C187.623 13.9223 187.692 13.912 187.752 13.8819C187.813 13.8519 187.862 13.8035 187.893 13.7437L192.683 4.08365C192.74 3.9675 192.76 3.83639 192.739 3.70869C192.717 3.58099 192.657 3.46311 192.565 3.37158C192.474 3.28005 192.356 3.21947 192.228 3.19832C192.1 3.17717 191.969 3.19653 191.853 3.25366L189.983 4.16365C189.086 4.59912 188.394 5.37061 188.053 6.31366C187.22 8.59366 186.967 11.037 187.293 13.6437Z" fill="#FDFDFD"/>
<path d="M132.403 20.0536C132.428 20.0616 132.454 20.0614 132.479 20.0531C132.503 20.0447 132.525 20.0286 132.539 20.0073C132.554 19.9859 132.561 19.9603 132.56 19.9345C132.559 19.9086 132.55 19.8837 132.533 19.8637C127.307 14.6637 121.303 10.8203 114.523 8.33365C103.993 4.47365 92.5832 6.32365 86.7332 17.0137C84.4132 21.2537 82.8632 25.797 82.0832 30.6437C80.2299 42.197 80.3166 53.997 82.3432 66.0436C82.3448 66.0644 82.3514 66.0844 82.3623 66.1023C82.3733 66.1201 82.3884 66.1353 82.4066 66.1468C82.4248 66.1583 82.4456 66.1658 82.4675 66.1687C82.4894 66.1716 82.5119 66.1699 82.5332 66.1636L82.9932 66.0236C82.9985 66.0236 83.0036 66.0215 83.0073 66.0178C83.0111 66.014 83.0132 66.009 83.0132 66.0037C82.9465 56.9037 83.6432 47.5003 85.1032 37.7937C86.7832 26.6837 92.7432 6.88365 107.863 9.58365C115.463 10.937 122.42 13.717 128.733 17.9237C130.247 18.9303 131.47 19.6403 132.403 20.0536Z" fill="#FDFDFD"/>
<path d="M72.0732 53.2436C72.0811 53.3259 72.1214 53.4016 72.1852 53.4541C72.2489 53.5066 72.331 53.5316 72.4132 53.5236C72.4954 53.5157 72.5711 53.4754 72.6236 53.4116C72.6761 53.3479 72.7011 53.2659 72.6932 53.1837C72.9632 46.6237 75.4132 39.3837 77.4132 33.8437C77.4525 33.7343 77.4541 33.615 77.4177 33.5047C77.3813 33.3943 77.309 33.2994 77.2123 33.2349C77.1157 33.1705 77.0002 33.1402 76.8843 33.1491C76.7685 33.1579 76.659 33.2053 76.5732 33.2837C71.1132 38.2437 70.4232 46.3936 72.0732 53.2436Z" fill="#FDFDFD"/>
<path d="M251.783 122.984C252.23 121.157 252.747 119.517 253.333 118.064C254.833 114.37 257.277 112.464 260.663 112.344C266.443 112.144 272.413 118.284 275.233 123.104C281.233 133.397 284.377 143.914 284.663 154.654C284.777 159.06 283.97 162.817 282.243 165.924C282.02 166.327 281.916 166.785 281.946 167.245C281.975 167.705 282.135 168.147 282.408 168.518C282.68 168.89 283.054 169.175 283.484 169.341C283.913 169.507 284.382 169.546 284.833 169.454L287.193 168.964C288.483 168.699 289.706 168.171 290.785 167.412C291.863 166.653 292.775 165.68 293.463 164.554C297.123 158.564 296.473 148.614 295.413 142.174C292.563 124.984 286.603 108.864 278.933 92.6637C270.343 74.5337 258.533 56.6837 243.683 43.7037C239.483 40.0337 232.793 35.9537 227.153 35.2537C226.618 35.1849 226.075 35.2985 225.613 35.5761C225.15 35.8537 224.794 36.2791 224.603 36.7837C223.803 38.9037 223.713 43.4136 223.993 45.2736C225.373 54.607 227.597 63.1703 230.663 70.9636C241.083 97.4236 247.873 114.78 251.033 123.034C251.061 123.114 251.115 123.183 251.186 123.23C251.258 123.277 251.342 123.3 251.427 123.294C251.512 123.288 251.593 123.255 251.657 123.199C251.722 123.143 251.766 123.067 251.783 122.984Z" fill="#FDFDFD"/>
<path d="M135.573 177.844C133.693 168.554 133.883 155.084 144.343 150.904C153.033 147.424 163.613 157.484 168.483 164.144C179.043 178.554 185.833 198.044 182.283 215.774C181.417 220.094 179.653 223.764 176.993 226.784C176.924 226.863 176.878 226.96 176.86 227.063C176.843 227.167 176.854 227.274 176.893 227.373C176.932 227.471 176.997 227.558 177.082 227.623C177.167 227.689 177.267 227.73 177.373 227.744C201.983 230.504 215.463 211.704 215.373 189.154C215.313 173.767 212.37 158.227 206.543 142.534C200.583 126.487 193.453 111.787 185.153 98.4336C179.207 88.867 171.243 79.5937 161.263 70.6137C153.333 63.4837 144.183 57.1036 134.223 53.6536C117.473 47.8536 112.053 70.4537 111.173 81.9237C109.853 99.0137 112.463 114.814 116.783 131.664C120.923 147.797 126.94 163.28 134.833 178.114C134.88 178.195 134.955 178.257 135.043 178.289C135.131 178.321 135.228 178.321 135.316 178.289C135.405 178.257 135.479 178.194 135.526 178.113C135.573 178.032 135.589 177.936 135.573 177.844Z" fill="#FDFDFD"/>
<path d="M264.219 127.169C262.528 124.217 262.351 121.141 263.822 120.298C265.293 119.456 267.856 121.166 269.547 124.118C271.238 127.07 271.416 130.146 269.945 130.989C268.473 131.832 265.91 130.122 264.219 127.169Z" fill="#FDFDFD"/>
<path d="M407.463 188.744C407.485 188.706 407.495 188.662 407.493 188.619C407.491 188.575 407.476 188.533 407.451 188.498C407.426 188.462 407.391 188.434 407.351 188.418C407.31 188.401 407.266 188.396 407.223 188.404C388.223 192.134 367.363 193.864 347.823 191.254C342.83 190.58 337.893 188.967 333.013 186.414C324.533 181.974 319.353 172.214 324.943 163.354C327.99 158.534 332.526 156.257 338.553 156.524C338.671 156.531 338.782 156.578 338.869 156.658C338.955 156.738 339.012 156.845 339.028 156.961C339.045 157.078 339.02 157.197 338.959 157.297C338.898 157.398 338.804 157.474 338.693 157.514C330.863 160.264 324.383 170.024 330.343 177.764C334.093 182.634 342.483 184.894 348.673 185.204C348.902 185.213 349.129 185.164 349.332 185.06C349.535 184.957 349.708 184.803 349.833 184.614C359.293 170.244 367.843 146.854 345.153 138.434C336.923 135.384 326.713 134.704 320.313 133.534C314.907 132.54 309.863 130.894 305.183 128.594C305.104 128.555 305.016 128.539 304.928 128.546C304.841 128.554 304.756 128.585 304.685 128.636C304.613 128.687 304.557 128.757 304.521 128.837C304.486 128.918 304.473 129.006 304.483 129.094C306.143 141.944 306.843 168.974 289.943 173.084C289.832 173.109 289.731 173.166 289.653 173.248C289.574 173.331 289.522 173.434 289.501 173.546C289.481 173.658 289.494 173.773 289.539 173.878C289.584 173.982 289.658 174.071 289.753 174.134C294.64 177.44 299.923 179.937 305.603 181.624C305.717 181.657 305.833 181.744 305.953 181.884C306.087 182.03 306.16 182.157 306.173 182.264C306.183 182.321 306.179 182.38 306.162 182.435C306.145 182.491 306.116 182.542 306.076 182.584C306.037 182.627 305.988 182.66 305.934 182.68C305.879 182.701 305.821 182.709 305.763 182.704C292.253 181.304 280.833 175.824 270.033 168.094C268.793 167.214 266.837 166.727 264.163 166.634C252.53 166.24 242.553 170.34 234.233 178.934C229.447 183.887 226.073 189.18 224.113 194.814C221.967 201.007 220.403 205.377 219.423 207.924C210.893 230.074 191.593 240.304 168.513 233.034C161.447 230.814 153.573 226.627 144.893 220.474C140.293 217.214 133.703 211.284 128.143 207.584C108.843 194.724 80.9732 183.694 57.6132 190.804C50.6998 192.904 44.0099 196.3 37.5432 200.994C21.4532 212.674 2.25319 232.824 0.133188 253.384C-1.06681 265.054 5.99321 275.914 15.2132 282.714C18.3799 285.054 22.1265 287.37 26.4532 289.664C47.4732 300.774 72.9632 308.804 92.9932 320.364C115.013 333.074 133.533 352.654 147.543 374.064C167.133 403.974 182.793 438.624 212.753 461.824C223.883 470.444 237.203 472.454 251.453 470.664C270.663 468.254 292.363 458.434 307.273 445.984C315.667 438.977 321.12 429.764 323.633 418.344C325.193 411.25 326.12 405.604 326.413 401.404C327.133 391.037 326.767 380.41 325.313 369.524C322.893 351.464 321.163 339.014 321.623 323.854C321.626 323.809 321.618 323.764 321.597 323.723C321.577 323.683 321.547 323.649 321.508 323.623C321.47 323.598 321.425 323.583 321.379 323.58C321.332 323.576 321.286 323.585 321.243 323.604L308.053 330.034C307.912 330.102 307.795 330.21 307.716 330.346C307.638 330.481 307.602 330.637 307.613 330.794C307.746 332.954 307.83 334.16 307.863 334.414C310.733 356.224 313.623 371.494 313.443 390.404C313.323 402.354 310.723 417.344 303.283 426.884C293.383 439.564 277.913 446.214 262.363 448.334C247.703 450.334 234.38 447.274 222.393 439.154C207.753 429.234 196.023 413.264 186.433 397.684C163.513 360.484 154.993 345.394 138.163 320.934C126.103 303.414 114.017 286.004 101.903 268.704C98.2165 263.444 93.4565 256.94 87.6232 249.194C87.4894 249.016 87.3054 248.882 87.094 248.807C86.8826 248.732 86.6529 248.721 86.4332 248.774C74.4532 251.594 63.2599 256.124 52.8532 262.364C52.7896 262.406 52.714 262.426 52.6379 262.421C52.5619 262.416 52.4895 262.386 52.4318 262.337C52.3741 262.287 52.3342 262.219 52.3182 262.145C52.3022 262.07 52.311 261.993 52.3432 261.924C52.6565 261.184 52.8699 260.74 52.9832 260.594C60.1499 251.807 69.9065 245.767 82.2532 242.474C97.5732 238.384 116.783 238.134 131.443 245.354C132.217 245.734 133.087 246.364 134.053 247.244C134.139 247.32 134.198 247.421 134.222 247.534C134.246 247.646 134.234 247.763 134.187 247.867C134.141 247.972 134.062 248.059 133.962 248.116C133.862 248.173 133.747 248.197 133.633 248.184C121.733 247.097 109.49 246.967 96.9032 247.794C96.8027 247.799 96.7058 247.833 96.6229 247.89C96.5401 247.947 96.4744 248.026 96.4331 248.117C96.3919 248.209 96.3766 248.31 96.389 248.41C96.4013 248.51 96.4408 248.605 96.5032 248.684C107.11 262.697 119.403 275.04 133.383 285.714C158.373 304.784 187.383 320.734 217.463 329.864C237.463 335.944 259.323 337.014 279.443 331.154C299.173 325.414 318.403 315.104 335.763 303.954C352.033 293.514 367.163 281.714 387.623 265.304C425.723 234.724 455.353 204.864 492.563 182.034C497.37 179.087 503.337 176.16 510.463 173.254C510.536 173.222 510.616 173.208 510.695 173.212C510.775 173.216 510.852 173.238 510.922 173.277C510.991 173.315 511.051 173.369 511.096 173.435C511.142 173.5 511.171 173.575 511.183 173.654L511.193 173.684C511.223 173.885 511.194 174.09 511.108 174.273C511.023 174.456 510.885 174.609 510.713 174.714C504.353 178.54 497.983 182.91 491.603 187.824C477.877 198.404 463.61 210.47 448.803 224.024C446.69 225.957 445.357 227.32 444.803 228.114C444.775 228.154 444.76 228.202 444.76 228.251C444.76 228.3 444.775 228.348 444.803 228.387C444.831 228.426 444.87 228.455 444.915 228.468C444.96 228.482 445.009 228.481 445.053 228.464C475.783 218.414 508.183 201.984 527.143 175.354C532.953 167.204 537.403 157.514 538.313 147.614C539.003 140.054 535.163 132.904 527.953 130.724C519.033 128.014 503.823 133.244 495.003 137.224C481.49 143.337 468.37 151.054 455.643 160.374C436.63 174.3 418.523 189.184 401.323 205.024C386.263 218.897 369.857 233.68 352.103 249.374C352.064 249.408 352.017 249.433 351.966 249.446C351.915 249.459 351.862 249.461 351.811 249.45C351.76 249.439 351.711 249.417 351.67 249.385C351.629 249.352 351.596 249.311 351.573 249.264L351.443 249.004C351.425 248.964 351.42 248.92 351.427 248.878C351.434 248.835 351.454 248.795 351.483 248.764C366.39 231.737 376.963 220.03 383.203 213.644C385.717 211.07 393.557 203.08 406.723 189.674C407.037 189.354 407.283 189.044 407.463 188.744ZM253.563 213.884C253.633 216.984 250.253 218.594 247.423 219.664C244.143 220.897 241.337 220.254 239.003 217.734C235.833 214.304 238.443 205.344 243.953 206.284C248.033 206.977 251.11 209.064 253.183 212.544C253.426 212.95 253.557 213.412 253.563 213.884Z" fill="#FDFDFD"/>
<path d="M153.218 170.975C151.024 166.881 150.957 162.645 153.069 161.512C155.181 160.379 158.673 162.779 160.868 166.873C163.063 170.966 163.13 175.203 161.017 176.335C158.905 177.468 155.413 175.068 153.218 170.975Z" fill="#FDFDFD"/>
<path d="M53.0732 168.164C53.0951 168.097 53.0929 168.024 53.0667 167.959C53.0406 167.894 52.9924 167.839 52.9304 167.806C52.8684 167.773 52.7966 167.762 52.7277 167.776C52.6588 167.791 52.597 167.829 52.5532 167.884C47.0132 175.564 41.5832 184.104 35.1132 191.184C35.0452 191.256 35.0026 191.349 34.9917 191.448C34.9809 191.547 35.0025 191.647 35.0532 191.732C35.1039 191.818 35.181 191.885 35.273 191.923C35.3649 191.961 35.4668 191.968 35.5632 191.944C39.0365 191.097 41.7732 189.194 43.7732 186.234C47.5666 180.627 50.6666 174.604 53.0732 168.164Z" fill="#FDFDFD"/>
<path d="M243.003 370.494C243.022 370.529 243.052 370.555 243.089 370.568C243.125 370.581 243.166 370.58 243.202 370.564C243.239 370.548 243.269 370.519 243.288 370.482C243.307 370.445 243.312 370.403 243.303 370.364C240.723 361.597 238.84 353.04 237.653 344.694C237.629 344.533 237.556 344.384 237.444 344.266C237.331 344.148 237.184 344.067 237.023 344.034L221.753 340.944C221.702 340.933 221.648 340.938 221.6 340.959C221.552 340.98 221.511 341.016 221.485 341.062C221.458 341.107 221.447 341.16 221.452 341.212C221.457 341.265 221.478 341.314 221.513 341.354C229.383 350.084 237.103 359.174 243.003 370.494Z" fill="#FDFDFD"/>
</svg>
